<?xml version="1.0" standalone="no"?>
<!DOCTYPE svg PUBLIC "-//W3C//DTD SVG 20010904//EN"
 "http://www.w3.org/TR/2001/REC-SVG-20010904/DTD/svg10.dtd">
<svg version="1.0" xmlns="http://www.w3.org/2000/svg"
 width="592.000000pt" height="592.000000pt" viewBox="0 0 592.000000 592.000000"
 preserveAspectRatio="xMidYMid meet">
<metadata>
Created by potrace 1.14, written by Peter Selinger 2001-2017
</metadata>
<g transform="translate(0.000000,592.000000) scale(0.100000,-0.100000)"
fill="#000000" stroke="none">
<path d="M1444 5883 c-60 -58 -138 -160 -172 -228 -76 -150 -76 -299 1 -466
22 -47 146 -233 167 -249 10 -8 65 -91 87 -130 45 -82 23 -162 -74 -269 l-22
-25 116 -118 c125 -126 120 -124 165 -73 75 84 150 227 165 313 8 49 10 155 2
167 -3 6 -9 26 -13 45 -15 79 -106 230 -251 415 -33 42 -67 126 -67 163 1 49
41 121 101 185 25 27 47 52 49 57 2 4 -7 19 -20 32 -29 30 -150 166 -175 196
l-18 23 -41 -38z"/>
<path d="M2254 5855 c-72 -78 -86 -94 -99 -116 -32 -53 -70 -130 -85 -174 -22
-65 -24 -199 -3 -268 22 -76 98 -222 133 -257 3 -3 33 -41 66 -86 77 -100 115
-172 119 -223 3 -54 -37 -131 -99 -192 -22 -22 -30 -11 144 -186 l74 -75 39
43 c75 85 149 213 161 279 2 14 5 25 6 25 2 0 8 52 10 90 2 38 -11 120 -25
158 -8 20 -11 37 -7 37 4 0 2 4 -3 8 -6 4 -21 31 -34 60 -14 28 -28 52 -33 52
-4 0 -8 6 -8 13 0 10 -65 100 -163 228 -32 42 -58 104 -61 145 -5 57 27 120
102 199 l53 57 -23 26 c-13 14 -30 33 -38 42 -95 103 -120 132 -120 138 0 4
-11 15 -24 24 -22 16 -24 15 -82 -47z"/>
<path d="M3118 5884 c-31 -28 -96 -104 -136 -159 -19 -26 -72 -135 -66 -135 3
0 2 -6 -4 -13 -28 -33 -34 -176 -12 -269 20 -83 106 -239 182 -330 50 -60 89
-117 116 -172 26 -49 28 -62 21 -102 -11 -61 -17 -70 -90 -158 l-26 -31 117
-117 116 -118 24 24 c90 85 170 225 186 325 26 159 -9 286 -125 456 -35 51
-71 99 -94 125 -24 26 -73 104 -90 142 -37 79 -10 162 83 258 l56 58 -19 23
c-20 25 -118 135 -172 194 l-30 33 -37 -34z"/>
<path d="M879 3853 c-1 -21 0 -42 1 -48 1 -5 1 -35 0 -65 -1 -30 -1 -66 0 -80
1 -14 1 -32 1 -40 -1 -8 -1 -28 0 -45 1 -16 1 -42 0 -57 0 -16 -1 -50 -1 -78
0 -27 0 -57 0 -65 0 -8 0 -22 0 -30 0 -8 0 -37 0 -65 -1 -27 -1 -60 -1 -72 -1
-13 -1 -34 0 -48 3 -80 3 -96 2 -107 -2 -22 -3 -205 -2 -233 1 -16 0 -138 0
-180 -1 -14 0 -37 0 -52 1 -16 1 -40 2 -55 0 -16 1 -39 1 -53 0 -14 -1 -37 -1
-52 -1 -16 -1 -40 -2 -55 -1 -37 -1 -72 0 -103 1 -14 1 -33 1 -42 0 -10 0 -40
0 -68 -1 -27 -1 -60 -1 -72 -1 -13 -1 -34 0 -48 0 -14 1 -41 2 -60 1 -19 1
-47 0 -62 0 -16 -1 -50 -1 -78 0 -27 0 -57 0 -65 0 -8 0 -22 0 -30 0 -8 0 -36
0 -62 1 -27 -1 -57 -3 -68 -2 -11 -1 -32 3 -46 4 -15 4 -32 0 -39 -4 -6 -4
-27 0 -46 4 -19 4 -36 0 -39 -5 -3 -5 -18 0 -34 4 -15 4 -34 0 -41 -4 -6 -4
-26 -1 -44 4 -17 5 -42 4 -56 -3 -23 -3 -69 -2 -152 0 -18 0 -53 0 -78 0 -25
0 -52 0 -60 0 -8 0 -44 0 -80 -2 -141 9 -224 43 -313 62 -165 195 -309 347
-376 81 -36 91 -39 124 -46 17 -3 41 -8 55 -11 14 -2 513 -5 1110 -5 l1085 0
86 25 c123 36 201 81 289 167 60 59 139 175 149 221 1 4 10 28 21 52 10 24 16
46 14 49 -3 2 1 17 7 33 7 18 12 112 13 251 1 122 5 225 9 229 4 4 15 9 25 10
72 8 212 54 305 101 133 66 215 126 322 236 76 78 195 240 195 265 0 7 5 12
10 12 6 0 10 7 10 15 0 9 7 26 15 38 14 22 86 231 84 245 -1 4 0 9 1 12 2 5 2
8 15 70 13 62 14 1020 1 1021 -6 1 -231 2 -501 2 l-490 2 -1 330 c-1 182 -2
336 -3 343 -1 9 -342 12 -1671 12 l-1670 0 -1 -37z m4007 -996 c9 -8 8 -534 0
-607 -8 -66 -52 -228 -66 -240 -4 -3 -12 -21 -20 -40 -36 -88 -152 -227 -256
-308 -82 -63 -293 -156 -312 -137 -10 9 -10 1329 -1 1335 12 8 647 5 655 -3z"/>
</g>
</svg>
